<?xml version="1.0" standalone="no"?>
<!DOCTYPE svg PUBLIC "-//W3C//DTD SVG 20010904//EN"
 "http://www.w3.org/TR/2001/REC-SVG-20010904/DTD/svg10.dtd">
<svg version="1.0" xmlns="http://www.w3.org/2000/svg"
 width="1024.000000pt" height="1024.000000pt" viewBox="0 0 1024.000000 1024.000000"
 preserveAspectRatio="xMidYMid meet">

<g transform="translate(0.000000,1024.000000) scale(0.100000,-0.100000)"
fill="currentColor" stroke="none">
<path d="M3449 7844 c-111 -34 -205 -130 -235 -241 -42 -155 30 -308 179 -383
33 -16 66 -30 72 -30 9 0 14 -51 18 -187 6 -229 31 -377 91 -558 54 -160 105
-269 190 -403 161 -253 382 -471 670 -657 134 -86 213 -155 232 -202 24 -56
18 -123 -16 -177 -41 -65 -64 -84 -220 -188 -235 -158 -325 -236 -477 -412
-319 -371 -473 -768 -473 -1220 0 -101 -3 -138 -12 -140 -157 -49 -248 -148
-264 -287 -16 -138 78 -289 221 -356 l60 -28 1580 -3 c1055 -1 1603 1 1648 8
85 13 151 46 208 103 97 97 131 218 94 342 -22 77 -112 170 -197 205 l-58 24
0 98 c0 431 -144 844 -413 1179 -153 192 -264 292 -513 460 -192 129 -240 172
-269 243 -31 74 -9 162 56 222 19 18 108 81 199 142 209 140 338 248 454 380
309 353 469 760 483 1232 l6 175 63 29 c129 58 194 145 202 271 8 130 -46 241
-153 315 -92 64 17 60 -1760 59 -1373 0 -1627 -3 -1666 -15z m2292 -477 c54
-37 63 -95 20 -138 l-29 -29 -847 0 c-933 0 -898 2 -930 -61 -34 -64 -2 -128
85 -172 l54 -27 1041 2 1040 3 55 27 c80 40 132 88 170 160 26 47 35 58 38 43
9 -43 -7 -325 -23 -415 -61 -337 -260 -677 -544 -928 -84 -74 -156 -125 -326
-231 -126 -79 -188 -138 -229 -221 -46 -91 -60 -158 -59 -280 1 -118 17 -188
65 -283 42 -83 103 -140 252 -231 175 -108 282 -193 406 -323 229 -239 371
-497 431 -781 18 -82 41 -339 33 -351 -2 -2 -59 32 -126 76 -287 187 -825 515
-927 568 -124 63 -266 86 -374 61 -115 -27 -207 -75 -567 -293 -489 -297 -478
-290 -501 -345 -17 -42 2 -100 45 -133 l33 -25 879 0 c817 0 881 -1 914 -18
64 -31 74 -96 23 -144 l-25 -23 -936 0 -937 0 -45 25 c-34 19 -51 39 -75 84
-30 60 -30 60 -29 225 1 139 5 185 26 281 63 280 220 563 445 800 112 118 208
194 404 323 155 102 169 114 221 197 82 129 108 289 73 446 -39 180 -103 259
-303 378 -166 99 -311 214 -425 337 -281 301 -426 643 -444 1045 -11 250 34
351 172 385 17 4 417 6 890 6 804 -2 862 -3 886 -20z"/>
<path d="M4329 6721 c-50 -51 -34 -113 40 -160 62 -38 375 -204 539 -284 159
-79 199 -87 285 -59 67 22 648 325 698 365 48 37 52 104 8 141 l-31 26 -755 0
-755 0 -29 -29z"/>
<path d="M5067 5936 c-52 -19 -73 -40 -93 -93 -25 -64 -14 -294 26 -527 16
-99 30 -193 30 -210 0 -16 -11 -97 -25 -180 -30 -187 -45 -374 -45 -571 0
-136 2 -155 23 -195 17 -34 34 -51 70 -69 44 -22 52 -23 90 -11 57 17 91 43
111 84 13 28 16 69 16 219 0 200 -9 314 -42 532 -24 164 -21 274 13 435 18 87
22 139 23 302 1 183 0 198 -20 224 -46 63 -110 84 -177 60z"/>
<path d="M3085 6261 c-156 -70 -164 -290 -13 -365 105 -52 221 -20 273 76 96
177 -79 372 -260 289z"/>
<path d="M6995 6268 c-85 -31 -134 -103 -135 -196 -1 -174 193 -263 338 -155
47 35 72 91 72 160 0 111 -78 194 -187 200 -32 1 -71 -2 -88 -9z"/>
<path d="M2916 5660 c-110 -34 -125 -205 -22 -254 29 -14 79 -16 365 -16 360
0 378 2 419 55 46 59 31 153 -32 198 -30 22 -37 22 -366 24 -184 1 -348 -2
-364 -7z"/>
<path d="M6643 5660 c-18 -4 -43 -14 -56 -23 -27 -17 -57 -74 -57 -106 0 -33
25 -83 55 -111 l27 -25 336 -3 c291 -3 342 -1 379 13 109 42 111 193 3 247
-31 16 -69 18 -345 17 -170 -1 -325 -4 -342 -9z"/>
<path d="M2902 5180 c-34 -15 -47 -29 -63 -64 -22 -50 -19 -81 12 -132 35 -58
29 -57 664 -58 575 -1 584 -1 612 20 87 64 78 188 -18 236 -31 17 -81 18 -599
18 -538 0 -567 -1 -608 -20z"/>
<path d="M6122 5180 c-94 -43 -95 -187 -1 -235 26 -14 104 -16 607 -18 535 -1
579 0 610 16 96 52 96 189 0 238 -35 18 -66 19 -605 19 -541 0 -570 -1 -611
-20z"/>
<path d="M2903 4721 c-30 -14 -48 -31 -64 -63 -20 -38 -21 -47 -10 -88 7 -25
20 -53 29 -63 41 -46 53 -47 409 -47 317 0 340 1 370 20 68 41 89 118 51 185
-43 74 -50 75 -418 75 -298 0 -328 -2 -367 -19z"/>
<path d="M6614 4726 c-94 -41 -109 -164 -28 -236 l35 -30 340 0 c377 0 392 2
429 62 42 69 14 163 -60 200 -31 16 -70 18 -360 18 -249 -1 -332 -4 -356 -14z"/>
<path d="M3084 4261 c-121 -55 -159 -218 -72 -317 62 -70 140 -90 229 -59 132
47 176 211 86 320 -38 46 -98 75 -157 75 -25 0 -63 -9 -86 -19z"/>
<path d="M6995 4268 c-91 -33 -139 -107 -133 -204 9 -147 150 -234 284 -175
60 27 81 45 107 96 45 88 12 205 -74 262 -46 30 -133 40 -184 21z"/>
</g>
</svg>
